<?xml version="1.0" encoding="utf-8"?><!-- Uploaded to: SVG Repo, www.svgrepo.com, Generator: SVG Repo Mixer Tools -->
<svg width="800px" height="800px" viewBox="-0.5 0 25 25" fill="none" xmlns="http://www.w3.org/2000/svg">
<path d="M1.99023 8.56V16.56C1.99023 17.6209 2.41166 18.6383 3.1618 19.3884C3.91195 20.1386 4.92937 20.56 5.99023 20.56H17.9902C19.0511 20.56 20.0685 20.1386 20.8187 19.3884C21.5688 18.6383 21.9902 17.6209 21.9902 16.56V8.56C21.9902 7.49913 21.5688 6.48171 20.8187 5.73157C20.0685 4.98142 19.0511 4.56 17.9902 4.56H5.99023C4.92937 4.56 3.91195 4.98142 3.1618 5.73157C2.41166 6.48171 1.99023 7.49913 1.99023 8.56Z" stroke="#ffffff" stroke-width="1.5" stroke-linecap="round" stroke-linejoin="round"/>
<path d="M5.99023 8.56V16.56" stroke="#ffffff" stroke-width="1.5" stroke-linecap="round" stroke-linejoin="round"/>
<path d="M8.99023 12.56V16.56" stroke="#ffffff" stroke-width="1.5" stroke-linecap="round" stroke-linejoin="round"/>
<path d="M8.99023 8.56V9.56" stroke="#ffffff" stroke-width="1.5" stroke-linecap="round" stroke-linejoin="round"/>
<path d="M14.9902 8.56V16.56" stroke="#ffffff" stroke-width="1.5" stroke-linecap="round" stroke-linejoin="round"/>
<path d="M12 16.5V16.56" stroke="#ffffff" stroke-width="1.5" stroke-linecap="round" stroke-linejoin="round"/>
<path d="M12 8.56V13.56" stroke="#ffffff" stroke-width="1.5" stroke-linecap="round" stroke-linejoin="round"/>
<path d="M17.9902 13.56V16.56" stroke="#ffffff" stroke-width="1.5" stroke-linecap="round" stroke-linejoin="round"/>
<path d="M17.9902 8.56V10.56" stroke="#ffffff" stroke-width="1.5" stroke-linecap="round" stroke-linejoin="round"/>
</svg>